<svg xmlns="http://www.w3.org/2000/svg" xmlns:xlink="http://www.w3.org/1999/xlink" width="160" height="160" viewBox="0 0 160 160"><path d="M159.606 87.111c-.069 20.873-8.727 34.809-23.532 49.523-14.805 14.714-35.573 23.245-56.446 23.186-20.873-.06-41.593-8.708-56.314-23.505C8.594 121.517.052 100.753.101 79.88.15 59.007 8.788 38.283 23.579 23.555 38.369 8.826 59.129.275 80.002.314c20.873.039 41.601 8.667 56.337 23.45 14.735 14.783 23.974 32.15 23.946 53.023l-80.431 3.28z" id="body" fill="#ff0" stroke="#000" stroke-width=".7"/><g id="eye"><circle r="11" cx="90" cy="38" id="pupil"/><circle r="12" cx="90" cy="15" fill="#ff0" id="eyelid"/><animate id="close_eye" xlink:href="#eyelid" attributeType="XML" attributeName="cy" from="37" to="15" dur="0.08s" begin="open_eye.end"/><animate id="open_eye" xlink:href="#eyelid" attributeType="XML" attributeName="cy" to="37" from="15" dur="0.08s" begin="3s; close_eye.end + 3s"/></g></svg>