<svg xmlns="http://www.w3.org/2000/svg" xmlns:xlink="http://www.w3.org/1999/xlink" width="580.398" height="606" viewBox="0 0 580.398 606"><svg width="580.398" height="605.56" viewBox="0 0 153.56361 160.22115" id="pacman" y="0"><g stroke="#000" stroke-width=".7" stroke-linecap="round"><path d="M153.102 112.23a79.753 79.753 0 0 1-88.543 46.105A79.753 79.753 0 0 1 .369 81.88 79.753 79.753 0 0 1 61.106 2.654a79.753 79.753 0 0 1 90.5 42.131L80.104 80.111z" fill="#ff0"></path><path d="M97.482 35.864a9.45 9.45 0 0 1-8.978 9.84 9.45 9.45 0 0 1-9.898-8.914 9.45 9.45 0 0 1 8.849-9.955 9.45 9.45 0 0 1 10.013 8.784l-9.427.647z"></path></g></svg></svg>