<svg xmlns="http://www.w3.org/2000/svg" xmlns:xlink="http://www.w3.org/1999/xlink" width="160" height="160" viewBox="0 0 160 160">
  <path
     d="m 159.6063,87.110998 c -0.0692,20.872712 -8.72764,34.808902 -23.53224,49.522782 -14.8046,14.71389 -35.57328,23.24483 -56.446019,23.18575 -20.87274,-0.0591 -41.592795,-8.70744 -56.313872,-23.50489 C 8.5930922,121.51718 0.05207229,100.75265 0.10101114,79.879884 0.14994913,59.007118 8.7882437,38.282865 23.578546,23.554602 38.368849,8.8263393 59.129229,0.2752342 80.002017,0.31403397 100.87481,0.35283289 121.60325,8.9810598 136.3387,23.764207 c 14.73544,14.783147 23.9746,32.149541 23.94594,53.022345 l -80.430873,3.28032 z"
     style="fill:#ffff00;stroke:#000000;stroke-width:0.69999999"
     id="body" />
  <g id="eye">
    <circle r="11" cx="90" cy="38" fill="#000000" id="pupil" />
    <circle r="12" cx="90" cy="15" fill="#ffff00" id="eyelid" />    
    <animate id="close_eye" xlink:href="#eyelid" attributeType="XML" attributeName="cy" from="37" to="15" dur="0.08s" begin="open_eye.end" />
    <animate id="open_eye" xlink:href="#eyelid" attributeType="XML" attributeName="cy" to="37" from="15" dur="0.08s" begin="3s; close_eye.end + 3s"/>
  </g>
</svg>
