<svg xmlns="http://www.w3.org/2000/svg" xmlns:xlink="http://www.w3.org/1999/xlink" width="160" height="160" viewBox="0 0 160 160">
  <path d="M152.9 112.2A79.8 79.8 0 0 1 64.3 158.3 79.8 79.8 0 0 1 0.1 81.8 79.8 79.8 0 0 1 60.9 2.6 79.8 79.8 0 0 1 151.4 44.7L79.9 80.1Z" style="fill:#ff0;stroke-width:0.7;stroke:#000" id="body"/>
  <path d="m97.2 35.8a9.4 9.4 0 0 1-9 9.8 9.4 9.4 0 0 1-9.9-8.9 9.4 9.4 0 0 1 8.8-10 9.4 9.4 0 0 1 10 8.8l-9.4 0.6z" style="stroke-width:0.7;stroke:#000"/>
  <animate id="close" xlink:href="#body" attributeType="XML" attributeName="d" from="M 152.85286,112.18647 A 79.752975,79.752975 0 0 1 64.309465,158.29034 79.752975,79.752975 0 0 1 0.12041636,81.836004 79.752975,79.752975 0 0 1 60.85521,2.6098389 79.752975,79.752975 0 0 1 151.35638,44.74105 L 79.853767,80.066872 Z" to="M 159.6063,80.331337 A 79.752975,79.752975 0 0 1 79.628041,159.81953 79.752975,79.752975 0 0 1 0.10101114,79.879884 79.752975,79.752975 0 0 1 80.002017,0.31403397 79.752975,79.752975 0 0 1 159.60667,80.176383 L 79.853767,80.066872 Z" dur="0.1s" begin="0s; open.end"/>
  <animate id="open" xlink:href="#body" attributeType="XML" attributeName="d" to="M 152.85286,112.18647 A 79.752975,79.752975 0 0 1 64.309465,158.29034 79.752975,79.752975 0 0 1 0.12041636,81.836004 79.752975,79.752975 0 0 1 60.85521,2.6098389 79.752975,79.752975 0 0 1 151.35638,44.74105 L 79.853767,80.066872 Z" from="M 159.6063,80.331337 A 79.752975,79.752975 0 0 1 79.628041,159.81953 79.752975,79.752975 0 0 1 0.10101114,79.879884 79.752975,79.752975 0 0 1 80.002017,0.31403397 79.752975,79.752975 0 0 1 159.60667,80.176383 L 79.853767,80.066872 Z" dur="0.1s" begin="close.end"/>
</svg>